<?xml version="1.0" encoding="UTF-8" standalone="no"?>
<!-- Created with Inkscape (http://www.inkscape.org/) -->
<svg
   xmlns:svg="http://www.w3.org/2000/svg"
   xmlns="http://www.w3.org/2000/svg"
   version="1.0"
   width="330"
   height="370"
   id="svg2">
  <defs
     id="defs4">
    <linearGradient
       id="linearGradient2241">
      <stop
         style="stop-color:#000000;stop-opacity:1"
         offset="0"
         id="stop2243" />
      <stop
         style="stop-color:#000000;stop-opacity:1"
         offset="1"
         id="stop2245" />
    </linearGradient>
    <linearGradient
       id="linearGradient2247">
      <stop
         style="stop-color:#000000;stop-opacity:1"
         offset="0"
         id="stop2249" />
      <stop
         style="stop-color:#000000;stop-opacity:0.74509805"
         offset="1"
         id="stop2251" />
    </linearGradient>
    <mask
       id="mask2185">
      <path
         d="M 88.865896,-45.302307 C 84.981431,-45.302307 81.828831,-42.149708 81.828831,-38.265261 L 81.828831,37.73493 C 81.828831,41.619395 84.981431,44.771996 88.865896,44.771996 L 164.86606,44.771996 C 168.75053,44.771996 171.90313,41.619395 171.90313,37.73493 L 171.90313,-38.265261 C 171.90313,-42.149706 168.75053,-45.302307 164.86606,-45.302307 L 88.865896,-45.302307 z "
         style="opacity:1;fill:#ffffff;fill-opacity:1;stroke-width:15;stroke-miterlimit:4;stroke-dasharray:none"
         id="path2187" />
    </mask>
    <linearGradient
       id="linearGradient3180">
      <stop
         style="stop-color:#000000;stop-opacity:1"
         offset="0"
         id="stop3182" />
      <stop
         style="stop-color:#000000;stop-opacity:1"
         offset="1"
         id="stop3184" />
    </linearGradient>
    <linearGradient
       id="linearGradient3235">
      <stop
         style="stop-color:#000000;stop-opacity:1"
         offset="0"
         id="stop3237" />
      <stop
         style="stop-color:#000000;stop-opacity:0.74509805"
         offset="1"
         id="stop3239" />
    </linearGradient>
  </defs>
  <g
     id="layer1">
    <path
       d="M 7.5,0 C 3.36,0 0,3.36 0,7.5 C 0,11.64 0,358.36 0,362.5 C 0,366.64 3.36,370 7.5,370 C 11.64,370 318.36,370 322.5,370 C 326.64,370 330,366.64 330,362.5 C 330,358.36 330,11.64 330,7.5 C 330,3.36 326.64,0 322.5,0 C 318.36,0 11.64,0 7.5,0 z "
       style="opacity:1;fill:#ffffff;fill-opacity:0.25098039;stroke:none;stroke-width:1;stroke-miterlimit:4;stroke-dasharray:none;stroke-opacity:1"
       id="path3147" />
    <path
       d="M 12.5,5 C 8.36,5 5,8.36 5,12.5 C 5,16.64 5,353.36 5,357.5 C 5,361.64 8.36,365 12.5,365 C 16.64,365 313.36,365 317.5,365 C 321.64,365 325,361.64 325,357.5 C 325,353.36 325,16.64 325,12.5 C 325,8.36 321.64,5 317.5,5 C 313.36,5 16.64,5 12.5,5 z "
       style="opacity:1;fill:#ffffff;fill-opacity:0.81568627;stroke:none;stroke-width:1;stroke-miterlimit:4;stroke-dasharray:none;stroke-opacity:1"
       id="path3134" />
    <path
       d="M 131.18224,312.47492 L 132.61668,312.47492 L 127.93917,329.93763 L 125.48607,329.93763 L 122.34694,314.82407 L 119.20781,329.93763 L 116.75472,329.93763 L 112.11878,312.47492 L 113.51164,312.47492 L 117.93969,329.06449 L 121.34907,312.47492 L 123.32402,312.47492 L 126.73341,329.06449 L 131.18224,312.47492 M 142.01685,328.33688 C 140.86652,329.44562 139.4598,329.99999 137.79669,329.99999 C 136.20287,329.99999 134.8308,329.4872 133.68048,328.46161 C 132.54402,327.32515 131.97579,325.95308 131.97579,324.3454 L 131.97579,322.49519 C 131.97579,320.90138 132.54402,319.53624 133.68048,318.39977 C 134.8308,317.24946 136.20287,316.6743 137.79669,316.67428 C 139.3905,316.6743 140.75565,317.24253 141.89212,318.37898 C 143.04243,319.50159 143.61759,320.87366 143.6176,322.49519 L 143.6176,324.11672 L 133.34786,324.11672 L 133.34786,324.3454 C 133.34786,325.57888 133.78443,326.63219 134.65756,327.50532 C 135.55842,328.3646 136.60479,328.79424 137.79669,328.79424 C 139.05788,328.79424 140.13891,328.31609 141.03977,327.3598 L 142.01685,328.33688 M 142.22474,322.72386 L 142.22474,322.49519 C 142.22473,321.27558 141.78816,320.23613 140.91504,319.37685 C 140.05575,318.50372 139.01631,318.06715 137.79669,318.06714 C 136.57708,318.06715 135.5307,318.50372 134.65756,319.37685 C 133.78443,320.23613 133.34786,321.27558 133.34786,322.49519 L 133.34786,322.72386 L 142.22474,322.72386 M 156.30957,322.49519 L 156.30957,324.3454 C 156.30956,325.93922 155.7344,327.31129 154.58409,328.46161 C 153.43376,329.4872 152.06862,329.99999 150.48867,329.99999 C 148.89484,329.99999 147.52277,329.4872 146.37246,328.46161 C 145.236,327.32515 144.66777,325.95308 144.66777,324.3454 L 144.66777,312.47492 L 146.03984,312.47492 L 146.03984,318.87791 C 146.58034,318.21268 147.23173,317.6791 147.994,317.27716 C 148.77011,316.87526 149.60167,316.6743 150.48867,316.67428 C 152.09634,316.6743 153.46841,317.24253 154.60488,318.37898 C 155.74133,319.51545 156.30956,320.88752 156.30957,322.49519 M 154.91671,322.49519 C 154.9167,321.27558 154.48014,320.23613 153.60701,319.37685 C 152.74773,318.50372 151.70828,318.06715 150.48867,318.06714 C 149.26905,318.06715 148.22267,318.50372 147.34954,319.37685 C 146.4764,320.23613 146.03983,321.27558 146.03984,322.49519 L 146.03984,324.3454 C 146.03983,325.57888 146.4764,326.63219 147.34954,327.50532 C 148.25039,328.3646 149.29676,328.79424 150.48867,328.79424 C 151.70828,328.79424 152.74773,328.35767 153.60701,327.48453 C 154.48014,326.6114 154.9167,325.56503 154.91671,324.3454 L 154.91671,322.49519 M 158.87343,329.93763 L 158.87343,318.29582 L 156.79454,318.29582 L 156.79454,316.92375 L 158.87343,316.92375 L 158.87343,315.15669 C 158.87343,314.35287 159.15754,313.66684 159.72578,313.09859 C 160.28015,312.51652 160.96618,312.22547 161.78388,312.22545 C 162.58772,312.22547 163.27375,312.51652 163.84199,313.09859 L 162.86491,314.07567 C 162.57386,313.77078 162.21352,313.61832 161.78388,313.61831 C 161.35424,313.61832 160.9939,313.77078 160.70286,314.07567 C 160.41181,314.36673 160.26629,314.72707 160.26629,315.15669 L 160.26629,316.92375 L 162.34518,316.92375 L 162.34518,318.29582 L 160.26629,318.29582 L 160.26629,329.93763 L 158.87343,329.93763 M 163.93262,329.93763 L 163.93262,322.49519 C 163.93262,320.90138 164.50085,319.53624 165.63731,318.39977 C 166.78763,317.24946 168.1597,316.6743 169.75352,316.67428 C 171.40277,316.6743 172.80948,317.28411 173.97368,318.50371 L 172.9966,319.48079 C 172.12345,318.53837 171.04242,318.06715 169.75352,318.06714 C 168.5339,318.06715 167.48752,318.50372 166.61439,319.37685 C 165.74125,320.23613 165.30468,321.27558 165.30469,322.49519 L 165.30469,329.93763 L 163.93262,329.93763 M 185.70351,322.49519 L 185.70351,327.44295 C 185.7035,328.19136 186.07077,328.56556 186.80532,328.56556 L 187.07558,328.56556 L 187.07558,329.93763 L 186.78453,329.93763 C 186.16085,329.93763 185.62727,329.75053 185.18378,329.37633 C 184.74028,328.98827 184.47002,328.50319 184.37302,327.9211 C 183.83249,328.60021 183.16725,329.11993 182.37728,329.48027 C 181.60115,329.82675 180.7696,329.99999 179.8826,329.99999 C 178.28878,329.99999 176.91671,329.4872 175.76639,328.46161 C 174.62993,327.32515 174.0617,325.95308 174.0617,324.3454 L 174.0617,322.49519 C 174.0617,320.90138 174.62993,319.53624 175.76639,318.39977 C 176.91671,317.24946 178.28878,316.6743 179.8826,316.67428 C 181.49028,316.6743 182.86235,317.24253 183.99881,318.37898 C 185.13527,319.51545 185.7035,320.88752 185.70351,322.49519 M 184.31065,322.49519 C 184.31064,321.27558 183.87407,320.23613 183.00095,319.37685 C 182.14166,318.50372 181.10222,318.06715 179.8826,318.06714 C 178.66299,318.06715 177.61661,318.50372 176.74347,319.37685 C 175.87034,320.23613 175.43377,321.27558 175.43377,322.49519 L 175.43377,324.3454 C 175.43377,325.57888 175.87034,326.63219 176.74347,327.50532 C 177.64433,328.3646 178.6907,328.79424 179.8826,328.79424 C 181.10222,328.79424 182.14166,328.35767 183.00095,327.48453 C 183.87407,326.6114 184.31064,325.56503 184.31065,324.3454 L 184.31065,322.49519 M 197.25469,329.93763 L 195.88262,329.93763 L 195.88262,321.14391 C 195.88261,320.2985 195.58464,319.57782 194.9887,318.98186 C 194.37888,318.37206 193.6582,318.06715 192.82665,318.06714 C 191.98122,318.06715 191.25361,318.37206 190.64381,318.98186 C 190.03399,319.59167 189.74295,320.31236 189.77067,321.14391 L 189.77067,329.93763 L 188.3986,329.93763 L 188.3986,321.14391 C 188.3986,319.95202 188.82824,318.90564 189.68752,318.00478 C 190.53293,317.11779 191.5793,316.6743 192.82665,316.67428 C 193.61662,316.6743 194.3373,316.8614 194.9887,317.23558 C 195.64008,317.6098 196.16673,318.10873 196.56866,318.73239 C 196.95671,318.10873 197.47643,317.6098 198.12783,317.23558 C 198.79306,316.8614 199.52067,316.6743 200.31066,316.67428 C 201.53027,316.6743 202.57664,317.11779 203.44979,318.00478 C 204.32291,318.87792 204.75255,319.9243 204.73871,321.14391 L 204.73871,329.93763 L 203.34585,329.93763 L 203.34585,321.06075 C 203.31811,320.2292 203.01321,319.52931 202.43114,318.96107 C 201.84903,318.36513 201.14221,318.06715 200.31066,318.06714 C 199.4791,318.06715 198.76534,318.36513 198.1694,318.96107 C 197.5873,319.52931 197.2824,320.2292 197.25469,321.06075 L 197.25469,329.93763 M 216.28047,328.33688 C 215.13014,329.44562 213.72342,329.99999 212.06031,329.99999 C 210.46649,329.99999 209.09442,329.4872 207.9441,328.46161 C 206.80764,327.32515 206.23941,325.95308 206.23941,324.3454 L 206.23941,322.49519 C 206.23941,320.90138 206.80764,319.53624 207.9441,318.39977 C 209.09442,317.24946 210.46649,316.6743 212.06031,316.67428 C 213.65412,316.6743 215.01926,317.24253 216.15573,318.37898 C 217.30604,319.50159 217.8812,320.87366 217.88122,322.49519 L 217.88122,324.11672 L 207.61148,324.11672 L 207.61148,324.3454 C 207.61147,325.57888 208.04804,326.63219 208.92118,327.50532 C 209.82203,328.3646 210.86841,328.79424 212.06031,328.79424 C 213.3215,328.79424 214.40253,328.31609 215.30339,327.3598 L 216.28047,328.33688 M 216.48836,322.72386 L 216.48836,322.49519 C 216.48835,321.27558 216.05178,320.23613 215.17865,319.37685 C 214.31937,318.50372 213.27992,318.06715 212.06031,318.06714 C 210.84069,318.06715 209.79431,318.50372 208.92118,319.37685 C 208.04804,320.23613 207.61147,321.27558 207.61148,322.49519 L 207.61148,322.72386 L 216.48836,322.72386"
       style="font-size:40px;font-style:normal;font-weight:normal;fill:#37abc8;fill-opacity:1;stroke:none;stroke-width:1px;stroke-linecap:butt;stroke-linejoin:miter;stroke-opacity:1;font-family:Y2K Neophyte"
       id="text2235" />
    <path
       d="M 173.70472,311.27264 L 174.65067,311.18993 C 174.69544,311.56901 174.79893,311.88089 174.96079,312.12557 C 175.1263,312.3668 175.38137,312.56324 175.72599,312.71487 C 176.0706,312.86305 176.45816,312.93714 176.88902,312.93714 C 177.27144,312.93714 177.60926,312.88028 177.90213,312.76656 C 178.19499,312.65283 178.41226,312.49775 178.55356,312.30133 C 178.69815,312.10144 178.77064,311.88434 178.77064,311.64999 C 178.77064,311.41221 178.70164,311.20544 178.56384,311.02968 C 178.42602,310.8505 178.19848,310.70058 177.88139,310.57996 C 177.67807,310.50071 177.22849,310.37836 176.5323,310.21294 C 175.83608,310.04408 175.34852,309.88556 175.06942,309.73737 C 174.70755,309.54784 174.43707,309.31349 174.25779,309.03434 C 174.082,308.75177 173.99428,308.43645 173.99428,308.08837 C 173.99428,307.70585 174.10273,307.34918 174.31982,307.01834 C 174.5369,306.68407 174.85398,306.43077 175.27108,306.25846 C 175.688,306.08615 176.15153,306 176.66148,305.99999 C 177.22317,306 177.71771,306.09133 178.14509,306.27397 C 178.57594,306.45317 178.9068,306.71853 179.13764,307.07003 C 179.36848,307.42155 179.49254,307.81959 179.50979,308.26413 L 178.54824,308.3365 C 178.49667,307.85748 178.32087,307.49564 178.02104,307.25095 C 177.72468,307.00628 177.28538,306.88394 176.70295,306.88394 C 176.09629,306.88394 175.6535,306.99595 175.3744,307.21994 C 175.09878,307.44051 174.96079,307.70758 174.96079,308.02118 C 174.96079,308.29342 175.05914,308.51743 175.25549,308.69318 C 175.44853,308.86894 175.95169,309.04987 176.76498,309.23595 C 177.58173,309.4186 178.1416,309.57885 178.44493,309.71669 C 178.88606,309.92001 179.21178,310.17848 179.42189,310.49208 C 179.63218,310.80223 179.73733,311.16065 179.73733,311.56729 C 179.73733,311.97049 179.62171,312.3513 179.39088,312.70969 C 179.16003,313.06466 178.82752,313.34208 178.39318,313.54195 C 177.9625,313.73839 177.47659,313.83659 176.93545,313.83659 C 176.24969,313.83659 175.67424,313.73666 175.20907,313.53677 C 174.74719,313.3369 174.38366,313.03708 174.11834,312.63732 C 173.85629,312.23413 173.71848,311.77923 173.70472,311.27264 M 184.56011,311.69653 L 185.47505,311.81542 C 185.37522,312.44606 185.1185,312.94059 184.7049,313.29899 C 184.29477,313.65396 183.78996,313.83142 183.19028,313.83142 C 182.43902,313.83142 181.8342,313.58674 181.37582,313.0974 C 180.9211,312.60458 180.69356,311.89985 180.69356,310.98317 C 180.69356,310.39042 180.79173,309.87177 180.98825,309.42722 C 181.1846,308.98266 181.48279,308.65012 181.88246,308.42954 C 182.28561,308.20554 182.72344,308.09355 183.19542,308.09355 C 183.79161,308.09355 184.27936,308.24518 184.65847,308.54843 C 185.0374,308.84826 185.28035,309.27558 185.38734,309.83041 L 184.48268,309.96998 C 184.39642,309.60126 184.2432,309.32384 184.02263,309.13773 C 183.80537,308.95164 183.54186,308.85861 183.23174,308.8586 C 182.7629,308.85861 182.38213,309.02747 182.08927,309.36518 C 181.79639,309.69947 181.64997,310.23017 181.64997,310.95731 C 181.64997,311.6948 181.79108,312.23068 182.07367,312.56495 C 182.35626,312.89924 182.72509,313.06637 183.18,313.06636 C 183.54535,313.06637 183.85032,312.95437 184.09494,312.73037 C 184.33954,312.50638 184.4946,312.16176 184.56011,311.69653 M 186.2608,313.70735 L 186.2608,308.21761 L 187.09831,308.21761 L 187.09831,309.04987 C 187.3119,308.66044 187.50843,308.40371 187.68753,308.27964 C 187.8703,308.15558 188.07013,308.09355 188.28721,308.09355 C 188.60082,308.09355 188.91955,308.19349 189.24344,308.39336 L 188.92304,309.25664 C 188.6955,309.12223 188.46814,309.05503 188.2406,309.05502 C 188.03728,309.05503 187.8547,309.11707 187.69267,309.24111 C 187.53082,309.36175 187.41539,309.53061 187.3464,309.7477 C 187.24309,310.07854 187.19133,310.44039 187.19134,310.83325 L 187.19134,313.70735 L 186.2608,313.70735 M 193.54434,311.93948 L 194.50589,312.05837 C 194.35413,312.62009 194.07337,313.05604 193.66326,313.36619 C 193.25312,313.67634 192.72922,313.83142 192.09175,313.83142 C 191.28874,313.83142 190.65125,313.58503 190.17911,313.09222 C 189.71045,312.59598 189.47611,311.90157 189.47611,311.009 C 189.47611,310.08544 189.71393,309.36863 190.18957,308.8586 C 190.66502,308.34857 191.28195,308.09355 192.04,308.09355 C 192.77418,308.09355 193.37368,308.34339 193.83905,308.84308 C 194.30422,309.34279 194.53689,310.04581 194.53691,310.95215 C 194.53689,311.00728 194.53506,311.09 194.53158,311.20026 L 190.43766,311.20026 C 190.47216,311.80335 190.64263,312.26515 190.94945,312.58563 C 191.25608,312.90613 191.63867,313.06637 192.09688,313.06636 C 192.43819,313.06637 192.72922,312.97678 192.97054,312.79757 C 193.21184,312.61837 193.40304,312.33234 193.54434,311.93948 M 190.48923,310.43521 L 193.55462,310.43521 C 193.51333,309.97344 193.39607,309.62709 193.20321,309.39621 C 192.90685,309.0378 192.52261,308.85861 192.05045,308.8586 C 191.62308,308.85861 191.26305,309.00161 190.97,309.28765 C 190.68062,309.57368 190.52024,309.9562 190.48923,310.43521 M 199.43731,311.93948 L 200.39886,312.05837 C 200.2471,312.62009 199.96634,313.05604 199.55621,313.36619 C 199.14609,313.67634 198.62219,313.83142 197.98471,313.83142 C 197.18171,313.83142 196.54422,313.58503 196.07207,313.09222 C 195.60341,312.59598 195.36908,311.90157 195.36908,311.009 C 195.36908,310.08544 195.6069,309.36863 196.08254,308.8586 C 196.55799,308.34857 197.17492,308.09355 197.93296,308.09355 C 198.66715,308.09355 199.26665,308.34339 199.732,308.84308 C 200.19718,309.34279 200.42986,310.04581 200.42986,310.95215 C 200.42986,311.00728 200.42802,311.09 200.42455,311.20026 L 196.33063,311.20026 C 196.36494,311.80335 196.5356,312.26515 196.84241,312.58563 C 197.14905,312.90613 197.53165,313.06637 197.98985,313.06636 C 198.33116,313.06637 198.62219,312.97678 198.8635,312.79757 C 199.1048,312.61837 199.29601,312.33234 199.43731,311.93948 M 196.38219,310.43521 L 199.44758,310.43521 C 199.40629,309.97344 199.28904,309.62709 199.09618,309.39621 C 198.79982,309.0378 198.41557,308.85861 197.94342,308.8586 C 197.51604,308.85861 197.15602,309.00161 196.86296,309.28765 C 196.57358,309.57368 196.4132,309.9562 196.38219,310.43521 M 201.57216,313.70735 L 201.57216,308.21761 L 202.40966,308.21761 L 202.40966,308.99817 C 202.81281,308.39508 203.39524,308.09355 204.15678,308.09355 C 204.48763,308.09355 204.79096,308.15385 205.06658,308.27447 C 205.34568,308.39165 205.55432,308.54673 205.69214,308.7397 C 205.82994,308.93269 205.92646,309.16186 205.98152,309.42722 C 206.01601,309.59953 206.03326,309.90106 206.03326,310.33183 L 206.03326,313.70735 L 205.10273,313.70735 L 205.10273,310.36802 C 205.10273,309.98894 205.06658,309.70637 204.99428,309.52025 C 204.92179,309.33072 204.79261,309.18082 204.60654,309.07053 C 204.42396,308.95682 204.20852,308.89995 203.96043,308.89995 C 203.56407,308.89995 203.22111,309.02574 202.93172,309.2773 C 202.64565,309.52889 202.5027,310.00617 202.5027,310.7092 L 202.5027,313.70735 L 201.57216,313.70735 M 207.44439,313.70735 L 207.44439,306.12922 L 208.37493,306.12922 L 208.37493,313.70735 L 207.44439,313.70735 M 213.58031,311.93948 L 214.54186,312.05837 C 214.39029,312.62009 214.10934,313.05604 213.69922,313.36619 C 213.28927,313.67634 212.76538,313.83142 212.1279,313.83142 C 211.32489,313.83142 210.68742,313.58503 210.21526,313.09222 C 209.7466,312.59598 209.51227,311.90157 209.51227,311.009 C 209.51227,310.08544 209.7499,309.36863 210.22553,308.8586 C 210.70117,308.34857 211.31792,308.09355 212.07615,308.09355 C 212.81015,308.09355 213.40983,308.34339 213.87502,308.84308 C 214.34019,309.34279 214.57287,310.04581 214.57287,310.95215 C 214.57287,311.00728 214.57122,311.09 214.56773,311.20026 L 210.47363,311.20026 C 210.50813,311.80335 210.67878,312.26515 210.98542,312.58563 C 211.29205,312.90613 211.67464,313.06637 212.13303,313.06636 C 212.47416,313.06637 212.76538,312.97678 213.00668,312.79757 C 213.24781,312.61837 213.43901,312.33234 213.58031,311.93948 M 210.52538,310.43521 L 213.59077,310.43521 C 213.5493,309.97344 213.43222,309.62709 213.23918,309.39621 C 212.94283,309.0378 212.55857,308.85861 212.08642,308.8586 C 211.65924,308.85861 211.29902,309.00161 211.00615,309.28765 C 210.71659,309.57368 210.55639,309.9562 210.52538,310.43521 M 217.7469,312.87512 L 217.88122,313.69702 C 217.61936,313.75216 217.38503,313.77972 217.17822,313.77972 C 216.8404,313.77972 216.57854,313.72631 216.39247,313.61949 C 216.2064,313.51266 216.07538,313.37309 215.99959,313.20078 C 215.92381,313.02502 215.88583,312.658 215.88583,312.09972 L 215.88583,308.94131 L 215.20356,308.94131 L 215.20356,308.21761 L 215.88583,308.21761 L 215.88583,306.85809 L 216.81122,306.29981 L 216.81122,308.21761 L 217.7469,308.21761 L 217.7469,308.94131 L 216.81122,308.94131 L 216.81122,312.15141 C 216.81122,312.41677 216.82663,312.58735 216.85765,312.66318 C 216.89215,312.73898 216.94554,312.7993 217.01803,312.84409 C 217.09381,312.8889 217.20061,312.91129 217.33842,312.91129 C 217.44191,312.91129 217.57789,312.89924 217.7469,312.87512"
       style="font-size:22px;font-style:normal;font-weight:normal;fill:#e2e3db;fill-opacity:1;stroke:none;stroke-width:1px;stroke-linecap:butt;stroke-linejoin:miter;stroke-opacity:1;font-family:Arial"
       id="text2239" />
  </g>
</svg>
